<svg id="Layer_1" data-name="Layer 1" xmlns="http://www.w3.org/2000/svg" viewBox="0 0 131.74 224.12"><defs><style>.cls-1{fill:#fff;}</style></defs><g id="Layer_2" data-name="Layer 2"><g id="Layer_1-2" data-name="Layer 1-2"><path class="cls-1" d="M16.55,224.14c-4.58-4-9.51-7.64-13.63-12-4.51-4.84-3.51-11.94,1.84-17.35,9.8-9.9,19.68-19.71,29.53-29.55l53.28-53.15c-11.74-11.62-23.29-23-34.76-34.41Q29.2,54.11,5.68,30.52C-1.84,23-1.88,16.64,5.5,9.14,17.55-3.09,21.61-3,33.9,9.26Q79.59,55,125.32,100.71c8.62,8.62,8.57,14.43-.19,23.18q-46.75,46.79-93.59,93.5c-2.64,2.62-6,4.52-9,6.75Z" transform="translate(0 -0.02)"/></g></g></svg>