<svg id="Layer_1" data-name="Layer 1" xmlns="http://www.w3.org/2000/svg" viewBox="0 0 131.74 224.12"><defs><style>.cls-1{fill:#fff;}</style></defs><g id="Layer_2" data-name="Layer 2"><g id="Layer_1-2" data-name="Layer 1-2"><path class="cls-1" d="M115.2,0c4.58,4,9.51,7.64,13.63,12,4.51,4.84,3.51,11.94-1.84,17.35-9.8,9.9-19.68,19.71-29.53,29.55L44.18,112.05c11.74,11.62,23.29,23,34.76,34.41q23.61,23.56,47.13,47.16c7.52,7.52,7.56,13.88.18,21.38-12,12.23-16.11,12.14-28.4-.12Q52.16,169.13,6.43,123.43c-8.62-8.62-8.57-14.43.19-23.18q46.74-46.8,93.59-93.5c2.64-2.62,6-4.52,9-6.75Z" transform="translate(0 0)"/></g></g></svg>