<svg xmlns="http://www.w3.org/2000/svg" viewBox="0 0 297.92 383.3"><defs><style>.cls-1{fill:#fff;}</style></defs><g id="Layer_2" data-name="Layer 2"><g id="Layer_1-2" data-name="Layer 1"><path class="cls-1" d="M297.92,383.3H0q1.91-19.35,3.81-38.69,2.39-24,4.8-48,2.46-24.54,4.91-49.09,2.42-24.18,4.82-48.36,2.82-28.26,5.66-56.53c1-10,2-20,3.08-30.44H66.6c0-9.66-.12-18.89.05-28.1a102,102,0,0,1,1.09-15.64,82.7,82.7,0,0,1,92-67.79c34.09,4.38,64.4,31.74,69.75,65.63,2.09,13.3,1.29,27.07,1.79,40.62.06,1.7,0,3.41,0,5.54h39.54c.4,4,.77,7.62,1.13,11.21q2.83,28.26,5.67,56.53,2.41,24.18,4.8,48.36,2.46,24.56,4.93,49.09,2.42,24.18,4.81,48.36Q295.05,354.66,297.92,383.3ZM91.48,112.21H206.73c-.49-13.43.22-26.89-1.71-39.95-3.79-25.48-26.33-45.11-50.64-46.94C123.71,23,100.56,43.24,94.06,66.07,89.77,81.15,92.51,96.53,91.48,112.21Z"/></g></g></svg>