<svg xmlns="http://www.w3.org/2000/svg" viewBox="0 0 129 88.42"><defs><style>.cls-1{fill:#fff;}</style></defs><g id="Layer_2" data-name="Layer 2"><g id="Layer_1-2" data-name="Layer 1"><g id="Layer_2-2" data-name="Layer 2"><g id="Layer_1-2-2" data-name="Layer 1-2"><path class="cls-1" d="M16.55,12.9,3.42,0h120c-.32.61,0-.23.09.43a.66.66,0,0,1-.08.46c-1.15,1.21-2.27,2.45-3.47,3.6q-23,22.14-46.17,44.27a2.25,2.25,0,0,0-1.83,1.84l-3.13,2.33a2.09,2.09,0,0,0-2,1.44c-4,1.08-7.24-.37-10.39-3.37C43.8,38.76,31,26.77,18.33,14.71,18.24,13.42,17.69,12.75,16.55,12.9Z"/><path class="cls-1" d="M48.61,52.38a44.34,44.34,0,0,0,8,7.1c5.39,3.84,10.62,3.28,15.64-1,3.51-3,7-6,10.83-9.33,13.78,12.34,27,25.72,41.17,39.27H3.28L9.8,82.2a2,2,0,0,0,1.79-1.76L34.33,58.75c3.24-3.11,6.5-6.21,9.46-9,1.48-.6,2.16.51,3,.92A2.14,2.14,0,0,0,48.61,52.38Z"/><path class="cls-1" d="M128.08,82.89,87.87,44.36c13.54-13,26.88-25.85,40.22-38.67.94.53.9,1.55.9,2.55V79.79C129,81,129.07,82.14,128.08,82.89Z"/><path class="cls-1" d="M71.91,50.6a2.25,2.25,0,0,1,1.83-1.84,1.74,1.74,0,0,1-1.6,1.86Z"/><path class="cls-1" d="M48.61,52.38a2.12,2.12,0,0,1-1.82-1.71,1.62,1.62,0,0,1,1.8,1.53C48.6,52.26,48.6,52.32,48.61,52.38Z"/><path class="cls-1" d="M66.82,54.37a2.09,2.09,0,0,1,2-1.44C68.49,54.1,67.91,54.73,66.82,54.37Z"/><path class="cls-1" d="M11.59,80.48A2,2,0,0,1,9.8,82.24a1.71,1.71,0,0,1,1.65-1.78Z"/><path class="cls-1" d="M16.55,12.9c1.15-.15,1.69.52,1.78,1.81A2.82,2.82,0,0,1,16.55,12.9Z"/><path class="cls-1" d="M.93,5.69,41.15,44.22C27.59,57.22,14.25,70.06.92,82.89,0,82.35,0,81.33,0,80.34V8.78C0,7.63-.06,6.43.93,5.69Z"/></g></g></g></g></svg>