<svg xmlns="http://www.w3.org/2000/svg" viewBox="0 0 320.34 320.37"><defs><style>.cls-1{fill:#fff;}</style></defs><g id="Layer_2" data-name="Layer 2"><g id="Layer_1-2" data-name="Layer 1"><path class="cls-1" d="M160.3,0H269.93C283.31,0,295.18,4.09,305,13.38c10.24,9.7,15.26,21.79,15.28,35.75q.14,111.14,0,222.26c-.06,24.2-16,43.13-39.67,48a52.61,52.61,0,0,1-10.4.94q-110,.07-220,0C25.26,320.33,6,304.74,1,280.7A53.34,53.34,0,0,1,0,269.93Q0,160.1,0,50.29C0,25.29,15.5,6,39.58,1A57.86,57.86,0,0,1,51.1,0Q105.67,0,160.3,0Zm-.55,287.44h80.07c11,0,22,.07,32.93-.09a14.54,14.54,0,0,0,14-10.88,28.32,28.32,0,0,0,.62-7.4V47.59a14.85,14.85,0,0,0-10.91-14,27.45,27.45,0,0,0-7-.61H51c-1.25,0-2.49,0-3.74.07-6.61.34-12.61,5.2-13.91,11.58a35.06,35.06,0,0,0-.36,7.09v217c0,1.37,0,2.75.05,4.12a14.82,14.82,0,0,0,10.92,14,28.32,28.32,0,0,0,7.4.62Q105.51,287.51,159.75,287.47Z"/><path class="cls-1" d="M140.74,177.47a30.54,30.54,0,0,1,2.45-3.32q32.24-32.31,64.51-64.54c7.16-7.14,16.59-7.58,23.36-1.25A16.07,16.07,0,0,1,233,130a36.8,36.8,0,0,1-3.51,3.87q-37.8,37.83-75.62,75.63c-9.38,9.37-18,9.34-27.42-.1q-18.66-18.65-37.28-37.3c-4.8-4.81-6.52-10.57-4.3-17.09s7-10.19,13.77-11c5.29-.63,9.77,1.29,13.5,5l25.13,25.11C138.14,175,139,175.83,140.74,177.47Z"/></g></g></svg>