<svg xmlns="http://www.w3.org/2000/svg" viewBox="0 0 464.44 529"><defs><style>.cls-1{fill:#fff;}</style></defs><g id="Layer_2" data-name="Layer 2"><g id="Layer_1-2" data-name="Layer 1"><g id="Layer_2-2" data-name="Layer 2"><g id="Layer_1-2-2" data-name="Layer 1-2"><path class="cls-1" d="M244.06,0H331c1,36.49,13.94,67.78,39.71,93.31s57.3,37.94,93.73,38.77v86.24c-23.81.61-46.86-3.53-69.4-11a223.08,223.08,0,0,1-63.65-33.57v6.66q.08,92.49.14,185c0,77.24-55.06,144.46-130.89,160-69.29,14.13-137.38-14.17-175.34-73.2C11.49,430.74,3.58,407.15.9,381.67-7.82,298.78,47.74,224.19,127,205.47A167.57,167.57,0,0,1,185.49,202c1.63.2,3.23.7,5.26,1.16v87.57c-5.12-.93-9.94-2-14.8-2.66-38.34-5.55-76.26,20.19-85.37,57.89a78.1,78.1,0,0,0,57,94.6c1.5.37,3,.7,4.53,1,41.85,8,83.6-21.07,90.7-63.23A93.72,93.72,0,0,0,244,362.89q.1-177.7.08-355.43Z"/></g></g></g></g></svg>